<svg xmlns="http://www.w3.org/2000/svg" width="543" height="289" viewBox="0 0 543 289" fill="none">
<path d="M173.164 189.981H115.943V133.259H230.386V202.025C230.386 214.054 228.131 225.255 223.624 235.634C219.113 246.024 212.964 255.109 205.176 262.897C197.389 270.684 188.235 276.833 177.709 281.345C167.19 285.853 156.056 288.107 144.304 288.107H86.5822C74.5527 288.107 63.3519 285.852 52.973 281.346C42.5835 276.835 33.4977 270.685 25.7098 262.897C17.9218 255.109 11.7725 246.023 7.26152 235.634C2.75522 225.256 0.5 214.056 0.5 202.025V86.5821C0.5 74.8285 2.75459 63.6946 7.26246 53.177C11.7737 42.6515 17.9229 33.4966 25.7098 25.7098C33.4977 17.9218 42.5845 11.7725 52.9731 7.26151C63.3509 2.75522 74.5517 0.5 86.5822 0.5H144.304C156.057 0.5 167.191 2.75459 177.709 7.26245C188.234 11.7737 197.389 17.9229 205.176 25.7098C212.963 33.4966 219.112 42.6505 223.623 53.177C228.131 63.6957 230.386 74.8295 230.386 86.5821V100.512H173.664V86.5821C173.664 78.4787 170.795 71.5488 165.066 65.8199C159.337 60.0911 152.407 57.2214 144.304 57.2214H86.5822C78.4787 57.2214 71.5489 60.0913 65.82 65.8199C60.0911 71.5486 57.2215 78.4789 57.2215 86.5821V202.025C57.2215 210.128 60.0913 217.058 65.82 222.787C71.5487 228.516 78.4789 231.386 86.5822 231.386H144.304C152.407 231.386 159.337 228.516 165.066 222.787C170.795 217.059 173.664 210.128 173.664 202.025V190.481V189.981H173.164ZM455.451 0.5H542.082V57.2214H513.721H513.221V57.7214V230.886V231.386H513.721H542.082V288.107H427.639V231.386H456H456.5V230.886V107.197V105.473L455.577 106.929L398.278 197.38L340.979 106.929L340.057 105.473V107.197V230.886V231.386H340.557H368.917V288.107H254.474V231.386H282.835H283.335V230.886V57.7214V57.2214H282.835H254.474V0.5H341.105L397.855 90.5594L398.278 91.2307L398.701 90.5594L455.451 0.5Z" fill="#eaeaef" stroke="black"/>
</svg>