<svg width="100%" height="100%" id="svg" viewBox="0 0 1440 590" xmlns="http://www.w3.org/2000/svg" class="transition duration-300 ease-in-out delay-150"><defs><linearGradient id="gradient" x1="3%" y1="66%" x2="97%" y2="34%"><stop offset="5%" stop-color="#464590"></stop><stop offset="95%" stop-color="#7b79ff"></stop></linearGradient></defs><path d="M 0,600 L 0,300 C 77.3205741626794,314.9856459330143 154.6411483253588,329.9712918660287 254,304 C 353.3588516746412,278.0287081339713 474.7559808612441,211.10047846889955 577,198 C 679.2440191387559,184.89952153110045 762.3349282296651,225.6267942583732 861,210 C 959.6650717703349,194.3732057416268 1073.9043062200958,122.39234449760767 1173,78 C 1272.0956937799042,33.60765550239234 1356.047846889952,16.80382775119617 1440,0 L 1440,600 L 0,600 Z" stroke="none" stroke-width="0" fill="url(#gradient)" fill-opacity="0.53" class="transition-all duration-300 ease-in-out delay-150 path-0"></path><defs><linearGradient id="gradient" x1="3%" y1="66%" x2="97%" y2="34%"><stop offset="5%" stop-color="#464590"></stop><stop offset="95%" stop-color="#7b79ff"></stop></linearGradient></defs><path d="M 0,600 L 0,500 C 61.97129186602868,515.6746411483253 123.94258373205736,531.3492822966507 241,518 C 358.05741626794264,504.65071770334924 530.2009569377991,462.2775119617225 629,415 C 727.7990430622009,367.7224880382775 753.2535885167465,315.5406698564594 838,287 C 922.7464114832535,258.4593301435406 1066.7846889952154,253.5598086124402 1177,243 C 1287.2153110047846,232.4401913875598 1363.6076555023924,216.2200956937799 1440,200 L 1440,600 L 0,600 Z" stroke="none" stroke-width="0" fill="url(#gradient)" fill-opacity="1" class="transition-all duration-300 ease-in-out delay-150 path-1"></path></svg>